<svg width="32" height="32" viewBox="0 0 32 32" fill="none" xmlns="http://www.w3.org/2000/svg">
<path d="M25.5924 8.55623C26.1857 7.96292 26.1857 7.00097 25.5924 6.40766C24.999 5.81435 24.0371 5.81435 23.4438 6.40766L16 13.8515L8.55617 6.40766C7.96286 5.81435 7.00091 5.81435 6.4076 6.40766C5.81429 7.00097 5.81429 7.96292 6.4076 8.55623L13.8514 16L6.4076 23.4439C5.81429 24.0372 5.81429 24.9991 6.4076 25.5924C7.00091 26.1857 7.96286 26.1857 8.55617 25.5924L16 18.1486L23.4438 25.5924C24.0371 26.1857 24.999 26.1857 25.5924 25.5924C26.1857 24.9991 26.1857 24.0372 25.5924 23.4438L18.1486 16L25.5924 8.55623Z" fill="#292929"/>
</svg>
